<?xml version="1.0" encoding="UTF-8"?>
<svg width="200" height="200" viewBox="0 0 200 200" xmlns="http://www.w3.org/2000/svg">
  <!-- Gear -->
  <g transform="translate(100,100)">
    <!-- Gear teeth -->
    <path d="M-85,0 L-80,-15 L-65,-15 L-70,0 L-65,15 L-80,15 Z
             M-60.1,-60.1 L-50.0,-70.7 L-39.6,-60.4 L-49.7,-49.7 L-39.6,-39.6 L-50.0,-29.3 Z
             M0,-85 L15,-80 L15,-65 L0,-70 L-15,-65 L-15,-80 Z
             M60.1,-60.1 L70.7,-50.0 L60.4,-39.6 L49.7,-49.7 L39.6,-39.6 L29.3,-50.0 Z
             M85,0 L80,15 L65,15 L70,0 L65,-15 L80,-15 Z
             M60.1,60.1 L50.0,70.7 L39.6,60.4 L49.7,49.7 L39.6,39.6 L50.0,29.3 Z
             M0,85 L-15,80 L-15,65 L0,70 L15,65 L15,80 Z
             M-60.1,60.1 L-70.7,50.0 L-60.4,39.6 L-49.7,49.7 L-39.6,39.6 L-29.3,50.0 Z" 
          fill="#B8B8B8" stroke="#A0A0A0" stroke-width="1"/>
    
    <!-- Gear center circle -->
    <circle cx="0" cy="0" r="45" fill="#C8C8C8" stroke="#A0A0A0" stroke-width="2"/>
    
    <!-- Inner circle -->
    <circle cx="0" cy="0" r="25" fill="white"/>
    
    <!-- Buildings inside gear -->
    <g transform="translate(0,-5)">
      <!-- Left building -->
      <rect x="-20" y="-15" width="12" height="25" fill="#2c5282"/>
      <rect x="-17" y="-12" width="2" height="2" fill="white"/>
      <rect x="-13" y="-12" width="2" height="2" fill="white"/>
      <rect x="-17" y="-8" width="2" height="2" fill="white"/>
      <rect x="-13" y="-8" width="2" height="2" fill="white"/>
      
      <!-- Middle building (tallest) -->
      <rect x="-6" y="-20" width="12" height="30" fill="#3182ce"/>
      <rect x="-3" y="-17" width="2" height="2" fill="white"/>
      <rect x="1" y="-17" width="2" height="2" fill="white"/>
      <rect x="-3" y="-13" width="2" height="2" fill="white"/>
      <rect x="1" y="-13" width="2" height="2" fill="white"/>
      <rect x="-3" y="-9" width="2" height="2" fill="white"/>
      <rect x="1" y="-9" width="2" height="2" fill="white"/>
      
      <!-- Right building -->
      <rect x="8" y="-10" width="12" height="20" fill="#4299e1"/>
      <rect x="11" y="-7" width="2" height="2" fill="white"/>
      <rect x="15" y="-7" width="2" height="2" fill="white"/>
      <rect x="11" y="-3" width="2" height="2" fill="white"/>
      <rect x="15" y="-3" width="2" height="2" fill="white"/>
    </g>
  </g>
</svg>